<svg xmlns="http://www.w3.org/2000/svg" width="92.313" height="90.313" viewBox="0 0 92.313 90.313">
  <g id="Group_12946" data-name="Group 12946" transform="translate(-860.221 729.096)">
    <path id="Path_6015" data-name="Path 6015" d="M860.221-646.028q.181-2.645.362-5.29a79.756,79.756,0,0,1,1.96-13.73c2.284-9.226,8.245-14.685,17.353-16.824a26.057,26.057,0,0,1,5.111-.394,2.49,2.49,0,0,1,1.363.551,18.619,18.619,0,0,1,1.642,1.493,7.65,7.65,0,0,0,.337-4.331,1.723,1.723,0,0,0-.609-.736,16.712,16.712,0,0,1-6.068-9.651,2,2,0,0,0-1.018-1.442,7.961,7.961,0,0,1-2.415-11.583,1.2,1.2,0,0,0,.216-.864c-2.085-7.682,2.161-14.275,8.135-17.3a30.272,30.272,0,0,1,12.636-2.929,15.78,15.78,0,0,1,6.23.7,5.961,5.961,0,0,1,3.749,3.4,7.93,7.93,0,0,0,3.164,3.8,15.127,15.127,0,0,1,3.406,3.161c1.587,1.949,1.44,4.248.816,6.532-.244.895-.579,1.765-.871,2.644a8.3,8.3,0,0,1-1.816,12.65,1.726,1.726,0,0,0-.7.932,19.558,19.558,0,0,1-6.471,10.186,2.218,2.218,0,0,0-.6,1.674c.12,1.419.443,2.822.685,4.231l.312.078c.906-.805,1.836-1.586,2.711-2.425a2.774,2.774,0,0,1,2.021-.8c9.334-.1,17.929,5.532,21.031,13.839a44.653,44.653,0,0,1,2.548,12.142c.409,5.154.576,10.327.808,15.494.072,1.6-.418,2.037-2.01,2.037q-35.964,0-71.927.018a2.335,2.335,0,0,1-2.09-.926Zm56.141-32.892c-.214.35-.386.628-.554.909-2.736,4.562-5.483,9.118-8.189,13.7a3.492,3.492,0,0,0-.469,1.676c-.035,5.475-.019,10.951-.022,16.426,0,1.528-.475,2.008-1.981,2.009q-7.174,0-14.347,0c-1.774,0-2.183-.405-2.184-2.17,0-5.415.013-10.831-.021-16.246a3.5,3.5,0,0,0-.46-1.684c-2.69-4.555-5.422-9.084-8.144-13.62-.165-.275-.346-.541-.54-.842-7.325,2.206-12.14,6.764-13.97,14.229-1.8,7.353-2.163,14.857-2.25,22.385a1.4,1.4,0,0,0,.086.314h11.037v-1.122q0-6.9,0-13.809a5.061,5.061,0,0,1,.085-1.073,1.346,1.346,0,0,1,1.357-1.111,1.388,1.388,0,0,1,1.477,1.083,3.612,3.612,0,0,1,.079.983q.007,7.04,0,14.08v.979h42.988c0-.4,0-.727,0-1.055q0-6.995.006-13.99c0-.385-.051-.889.16-1.127.361-.41.918-.909,1.379-.895s.983.547,1.322.976c.2.256.136.75.136,1.137q.011,6.95,0,13.9v1.046h9.919c.012-.258.037-.438.027-.616-.241-4.383-.385-8.775-.762-13.147a43.588,43.588,0,0,0-2.283-11.372C927.85-673.508,922.963-677.174,916.362-678.919Zm-10.39-37.156c-1.777,2.038-4.065,2.585-6.615,2.515-1.953-.054-3.913-.076-5.862.038a52.643,52.643,0,0,0-7.159.716,4.875,4.875,0,0,0-4.252,4.41,2.759,2.759,0,0,1-.819,1.515,4.955,4.955,0,0,0,1.389,8.18,2.621,2.621,0,0,1,1.761,2.32,13.429,13.429,0,0,0,3.136,6.785,12.373,12.373,0,0,0,19.346.2,17.277,17.277,0,0,0,3.658-7.646,1.9,1.9,0,0,1,1.467-1.615,2.689,2.689,0,0,0,1.191-.767,5.9,5.9,0,0,0,1.651-5.216,2.8,2.8,0,0,0-1.24-1.824,3.957,3.957,0,0,1-1.9-2.026,17.865,17.865,0,0,0-.948-1.74A20.8,20.8,0,0,0,905.972-716.076Zm7.463,4.429c1.021-2.141.788-3.936-.725-5.486a8.419,8.419,0,0,0-1.956-1.581,9.62,9.62,0,0,1-4.272-5.062,2.807,2.807,0,0,0-1.856-1.7,11.476,11.476,0,0,0-2.359-.536,29.313,29.313,0,0,0-12.328,1.67c-4.271,1.546-7.385,4.328-8.659,8.845a19.769,19.769,0,0,0-.37,2.206,12.56,12.56,0,0,1,8.186-2.976q5.543-.2,11.09-.3a4.506,4.506,0,0,0,3.926-1.973,1.866,1.866,0,0,1,1.181-.838,3.727,3.727,0,0,1,1.913.558c2.485,1.561,4.09,3.943,5.687,6.321C913.067-712.237,913.229-711.97,913.434-711.647Zm-30.667,32.485c.085.171.14.3.213.425,2.547,4.255,5.105,8.5,7.634,12.769a1.163,1.163,0,0,0,1.2.569c4.03-.012,8.061-.022,12.09.009a1.36,1.36,0,0,0,1.348-.779c2.419-4.086,4.872-8.151,7.311-12.225.148-.248.276-.508.414-.762l-.17-.277a5.4,5.4,0,0,0-1.5.653c-4,3.515-7.958,7.071-11.931,10.614-1.194,1.065-1.77,1.057-2.925-.028-3.6-3.377-7.218-6.725-10.767-10.15A2.709,2.709,0,0,0,882.767-679.162Zm8.887,31.943h12.4v-15.166h-12.4Zm.042-35.763c-.376,1.522-.683,2.956-1.1,4.357a.953.953,0,0,0,.316,1.15c2.095,1.94,4.168,3.9,6.25,5.857.255.24.519.471.795.721l6.629-5.915-1.683-6.041A15.142,15.142,0,0,1,891.7-682.981Z" transform="translate(0)" fill="#df6618"/>
    <path id="Path_6016" data-name="Path 6016" d="M1137.362-696.1v1.071q0,8.709,0,17.419a4.337,4.337,0,0,1-.037.9,1.42,1.42,0,0,1-1.448,1.241,1.379,1.379,0,0,1-1.455-1.218,5.362,5.362,0,0,1-.059-.987q-.024-18.5-.04-37c0-1.413.016-2.827.042-4.241.02-1.1.595-1.787,1.478-1.8a1.5,1.5,0,0,1,1.489,1.843c-.277,1.975.582,3.111,2.124,4.266,6.666,4.992,13.222,10.131,19.817,15.218.333.257.771.47.948.813a2.127,2.127,0,0,1,.284,1.473c-.148.41-.714.719-1.161.953a2.289,2.289,0,0,1-.979.052q-9.925,0-19.851,0Zm17.107-2.991.094-.164-17.116-13.2V-699.1Z" transform="translate(-208.021 -6.355)" fill="#df6618"/>
    <path id="Path_6017" data-name="Path 6017" d="M1003.2-424.18c-.87,0-1.741.023-2.61-.008a1.53,1.53,0,0,1-1.628-1.463,1.528,1.528,0,0,1,1.65-1.529q2.565-.038,5.13,0a1.527,1.527,0,0,1,1.627,1.461,1.562,1.562,0,0,1-1.649,1.537c-.06,0-.12,0-.18,0Z" transform="translate(-105.292 -229.116)" fill="#df6618"/>
    <path id="Path_6018" data-name="Path 6018" d="M1003.18-442.393c-.9,0-1.8.023-2.7-.006a1.468,1.468,0,0,1-1.512-1.457,1.452,1.452,0,0,1,1.5-1.47q2.7-.045,5.4,0a1.452,1.452,0,0,1,1.511,1.456,1.46,1.46,0,0,1-1.5,1.47C1004.98-442.37,1004.08-442.394,1003.18-442.393Z" transform="translate(-105.299 -215.342)" fill="#df6618"/>
    <path id="Path_6019" data-name="Path 6019" d="M1003.151-405.866c-.87,0-1.74.017-2.609-.005a1.5,1.5,0,0,1-1.577-1.5,1.457,1.457,0,0,1,1.523-1.45q2.653-.057,5.308-.005a1.466,1.466,0,0,1,1.575,1.49,1.506,1.506,0,0,1-1.61,1.461C1004.891-405.852,1004.021-405.866,1003.151-405.866Z" transform="translate(-105.295 -243.044)" fill="#df6618"/>
  </g>
</svg>
