<svg xmlns="http://www.w3.org/2000/svg" width="236.591" height="231.38" viewBox="0 0 236.591 231.38">
  <g id="Path_5977" data-name="Path 5977" transform="translate(-1.902 -2.508)" fill="#fff">
    <path d="M 158.4940643310547 233.3885650634766 L 81.90059661865234 233.3885650634766 C 79.50875091552734 233.3885650634766 77.11495208740234 233.1178894042969 74.78574371337891 232.5840606689453 C 72.48451232910156 232.0566864013672 70.23812866210938 231.2706909179688 68.1090087890625 230.2479858398438 C 65.97986602783203 229.2252655029297 63.96224594116211 227.9630737304688 62.11215972900391 226.4964447021484 C 60.23957061767578 225.0119476318359 58.53203964233398 223.3125915527344 57.03701019287109 221.4455718994141 L 9.391452789306641 161.9448089599609 C 7.888041496276855 160.0673065185547 6.597247123718262 158.0175323486328 5.554953098297119 155.8524169921875 C 4.525335311889648 153.713623046875 3.73465895652771 151.4553070068359 3.204894304275513 149.1402435302734 C 2.675158977508545 146.8251800537109 2.405041217803955 144.4477386474609 2.402100086212158 142.0740051269531 C 2.399100065231323 139.6710968017578 2.670011758804321 137.2639465332031 3.207305908203125 134.9195098876953 L 20.1899528503418 60.81856536865234 C 20.7259521484375 58.47991943359375 21.52774810791016 56.20042037963867 22.57312965393066 54.04339218139648 C 23.6058349609375 51.91241836547852 24.87962913513184 49.89368438720703 26.35906982421875 48.04324340820312 C 27.83854103088379 46.19280242919922 29.52742385864258 44.50597763061523 31.37883567810059 43.02956771850586 C 33.25289535522461 41.53512573242188 35.30004119873047 40.25127410888672 37.46336364746094 39.2137451171875 L 106.4230117797852 6.140684604644775 C 108.5767211914062 5.107772827148438 110.8489532470703 4.317390441894531 113.1765975952148 3.791478633880615 C 115.4763641357422 3.27186107635498 117.8384857177734 3.008419990539551 120.1973342895508 3.008419990539551 C 122.5561904907227 3.008419990539551 124.9182739257812 3.27186107635498 127.2180404663086 3.791478633880615 C 129.5457153320312 4.317390441894531 131.8179473876953 5.107772827148438 133.9716644287109 6.140684604644775 L 202.9312438964844 39.21371459960938 C 205.0945739746094 40.25124359130859 207.1416931152344 41.53509521484375 209.0157470703125 43.02953720092773 C 210.8671569824219 44.50595092773438 212.5560455322266 46.19277191162109 214.0355072021484 48.043212890625 C 215.5149536132812 49.89365386962891 216.7887420654297 51.91239166259766 217.8214569091797 54.04333114624023 C 218.8668365478516 56.20035934448242 219.6686248779297 58.47983169555664 220.2046356201172 60.81847763061523 L 237.1874237060547 134.9194488525391 C 237.7247161865234 137.2638854980469 237.9956359863281 139.6710357666016 237.9926300048828 142.073974609375 C 237.9896850585938 144.4477081298828 237.7195739746094 146.8251495361328 237.1898345947266 149.1402130126953 C 236.6600646972656 151.4553070068359 235.8694000244141 153.713623046875 234.8397827148438 155.8524169921875 C 233.7974853515625 158.0175323486328 232.5067138671875 160.0673065185547 231.0033111572266 161.9448089599609 L 183.3576354980469 221.4455718994141 C 181.8625946044922 223.3125915527344 180.1550750732422 225.0119476318359 178.2824859619141 226.4964141845703 C 176.4323883056641 227.9630737304688 174.4147796630859 229.2252502441406 172.2856597900391 230.2479858398438 C 170.1565093994141 231.2706909179688 167.91015625 232.0566558837891 165.6089172363281 232.5840606689453 C 163.2797241210938 233.1178894042969 160.8859252929688 233.3885650634766 158.4940643310547 233.3885650634766 Z" stroke="none"/>
    <path d="M 120.1973342895508 3.508392333984375 C 117.87548828125 3.508392333984375 115.5504608154297 3.767715454101562 113.2868041992188 4.2791748046875 C 110.9956817626953 4.796798706054688 108.7591094970703 5.574798583984375 106.6392364501953 6.59149169921875 L 37.67958068847656 39.66455078125 C 35.55020141601562 40.68583679199219 33.53520202636719 41.94949340820312 31.69058227539062 43.42048645019531 C 29.86824035644531 44.87371826171875 28.20587158203125 46.53408813476562 26.74961853027344 48.35549926757812 C 25.29336547851562 50.17689514160156 24.03958129882812 52.16392517089844 23.02308654785156 54.26142883300781 C 21.99411010742188 56.38458251953125 21.20489501953125 58.62831115722656 20.67733764648438 60.93023681640625 L 3.69464111328125 135.0311889648438 C 3.165771484375 137.3388671875 2.89910888671875 139.7082214355469 2.902084350585938 142.0733947753906 C 2.904983520507812 144.4098663330078 3.170867919921875 146.7499694824219 3.692306518554688 149.0287170410156 C 4.2137451171875 151.3074645996094 4.991989135742188 153.5303039550781 6.005462646484375 155.6355590820312 C 7.031402587890625 157.7666473388672 8.301895141601562 159.7842407226562 9.78173828125 161.6322784423828 L 57.42733764648438 221.1330261230469 C 58.89889526367188 222.9707794189453 60.57962036132812 224.6434631347656 62.42280578613281 226.1046142578125 C 64.24383544921875 227.5482177734375 66.22976684570312 228.7906188964844 68.32548522949219 229.7972717285156 C 70.42120361328125 230.8039245605469 72.63233947753906 231.5775909423828 74.89743041992188 232.0967102050781 C 77.19004821777344 232.6221466064453 79.5462646484375 232.8885498046875 81.90058898925781 232.8885498046875 L 158.4940795898438 232.8885498046875 C 160.848388671875 232.8885498046875 163.2046203613281 232.6221160888672 165.4972381591797 232.0966796875 C 167.7623291015625 231.5775604248047 169.9734191894531 230.8039245605469 172.0691528320312 229.7972412109375 C 174.1648559570312 228.7905883789062 176.1508331298828 227.5482177734375 177.9718322753906 226.1045837402344 C 179.8150177001953 224.6434326171875 181.4957427978516 222.9707794189453 182.9673004150391 221.1330261230469 L 230.6129913330078 161.6322784423828 C 232.0928344726562 159.7842407226562 233.3633270263672 157.7666473388672 234.3892669677734 155.6355590820312 C 235.4027099609375 153.5303039550781 236.1809844970703 151.3074340820312 236.7024230957031 149.0286865234375 C 237.2238616943359 146.7499389648438 237.48974609375 144.4098358154297 237.4926452636719 142.0733337402344 C 237.4955902099609 139.7081604003906 237.2289276123047 137.3388061523438 236.7000579833984 135.0311584472656 L 219.7172393798828 60.93017578125 C 219.1896820068359 58.62825012207031 218.4004516601562 56.384521484375 217.3714904785156 54.26136779785156 C 216.3549957275391 52.16389465332031 215.1012115478516 50.17686462402344 213.6449584960938 48.35546875 C 212.1887359619141 46.5340576171875 210.5263671875 44.87368774414062 208.7040252685547 43.42048645019531 C 206.8594055175781 41.94949340820312 204.8443908691406 40.68580627441406 202.7150268554688 39.66455078125 L 133.7554321289062 6.59149169921875 C 131.6355285644531 5.574798583984375 129.3989562988281 4.796798706054688 127.1078643798828 4.2791748046875 C 124.8442077636719 3.767715454101562 122.5191802978516 3.508392333984375 120.1973342895508 3.508392333984375 M 120.1973342895508 2.508407592773438 C 124.9814224243164 2.508407592773438 129.7655029296875 3.568878173828125 134.1878662109375 5.689834594726562 L 203.1474609375 38.76289367675781 C 212.0322113037109 43.02406311035156 218.4907073974609 51.10202026367188 220.6919555664062 60.70677185058594 L 237.6747741699219 134.8077392578125 C 239.8815765380859 144.4367065429688 237.5682373046875 154.5462646484375 231.3935852050781 162.2573394775391 L 183.7478942871094 221.7580871582031 C 177.6079864501953 229.4256744384766 168.3170471191406 233.8885192871094 158.4940795898438 233.8885498046875 L 81.90058898925781 233.8885498046875 C 72.07762145996094 233.8885498046875 62.78665161132812 229.4257049560547 56.64674377441406 221.7580871582031 L 9.001144409179688 162.2573394775391 C 2.826492309570312 154.5462646484375 0.513153076171875 144.4367370605469 2.719924926757812 134.8078002929688 L 19.70262145996094 60.70683288574219 C 21.90386962890625 51.10208129882812 28.36236572265625 43.02409362792969 37.24714660644531 38.76289367675781 L 106.2068023681641 5.689834594726562 C 110.6291656494141 3.568878173828125 115.4132461547852 2.508407592773438 120.1973342895508 2.508407592773438 Z" stroke="none" fill="#707070"/>
  </g>
</svg>
