<svg xmlns="http://www.w3.org/2000/svg" width="103.608" height="90.313" viewBox="0 0 103.608 90.313">
  <g id="Group_12945" data-name="Group 12945" transform="translate(-85.81 662.312)">
    <path id="Path_6008" data-name="Path 6008" d="M189.417-542.946c-.182.426-.34.864-.549,1.277a5.408,5.408,0,0,1-4.916,3.161c-1.242.047-2.486.009-3.708.009a9.673,9.673,0,0,1-9.47,7.953,9.626,9.626,0,0,1-9.356-7.905H113.763a30.545,30.545,0,0,1-1.5,3.407,9.447,9.447,0,0,1-9.722,4.351,9.435,9.435,0,0,1-7.566-7.487,1.527,1.527,0,0,0-1.056-1.288c-1.7-.729-3.383-1.507-5.081-2.245a4.666,4.666,0,0,1-3.032-4.67c.017-3.911,0-7.823.007-11.735a6.893,6.893,0,0,1,5.977-7.259,22.231,22.231,0,0,0,11.785-5.993,22.085,22.085,0,0,1,15.794-6.141c3.2-.014,6.4,0,9.671,0,.028-.3.073-.562.073-.818,0-3.136-.007-6.272.013-9.408a1.05,1.05,0,0,0-.683-1.152,6.061,6.061,0,0,1-3.627-4.786,9.774,9.774,0,0,1,.505-5.743c.743-1.581,1.321-3.24,1.971-4.866.8-2.008,1.493-2.487,3.647-2.488q18.108,0,36.215,0c1.686,0,3.372-.009,5.058,0,1.9.013,2.686.542,3.386,2.282a54.648,54.648,0,0,1,2.342,6.018c.962,3.569.387,7.312-2.759,9.279a1.549,1.549,0,0,0-.529,1.141c-.042,3.2-.02,6.406-.025,9.61,0,3.024-1.52,4.556-4.519,4.558q-9.813.007-19.625,0h-1.167c.118.185.149.288.217.334,3.835,2.568,7.661,5.151,11.516,7.69,2.655,1.748,5.725,2.281,8.772,2.866,3.174.61,6.354,1.2,9.512,1.883a12.342,12.342,0,0,1,9.921,9.5,2.581,2.581,0,0,0,.16.365Zm-28.024,1.379a9.642,9.642,0,0,1,9.457-7.9,9.62,9.62,0,0,1,9.366,7.916c1.328,0,2.675.06,4.014-.019a2.388,2.388,0,0,0,2.1-2.037c.094-1.091.021-2.2.021-3.372-1.505,0-2.916.021-4.325-.006a2.4,2.4,0,0,1-2.649-2.341,14.365,14.365,0,0,1,.084-3.222,4.188,4.188,0,0,1,2.653-3.321c.249-.112.511-.194.768-.29l.04-.318a21.254,21.254,0,0,0-3.394-1.424c-3.277-.766-6.588-1.388-9.892-2.035-3.373-.661-6.8-1.189-9.754-3.1q-5.941-3.841-11.789-7.825a20.271,20.271,0,0,0-11.588-3.607q-8.649-.036-17.3,0a19.4,19.4,0,0,0-13.593,5.311,38.285,38.285,0,0,1-3.244,2.733,23.993,23.993,0,0,1-10.131,4.056,3.763,3.763,0,0,0-3.309,3.216,24.3,24.3,0,0,0-.022,3.017c.815,0,1.582-.017,2.348,0a2.436,2.436,0,0,1,2.645,2.65c.029,1.18.014,2.36,0,3.54-.017,1.961-.945,2.88-2.931,2.909-.693.01-1.386,0-2.451,0,.405.931.513,1.915,1.014,2.195,1.741.974,3.618,1.7,5.456,2.532a9.634,9.634,0,0,1,9.342-7.157,9.307,9.307,0,0,1,5.228,1.628,9.472,9.472,0,0,1,4.039,6.267Zm5.256-49.008a6.726,6.726,0,0,1-5.026,2.334,6.735,6.735,0,0,1-5.057-2.3,6.776,6.776,0,0,1-10.125.061c-4.213,3.078-5.82,3.078-9.965.134l-4.257,2.365v10.23c3.421.281,6.763.755,10.11.794,9.3.109,18.611.04,27.917.035,1.124,0,1.343-.23,1.346-1.388q.011-4.6,0-9.2a6.31,6.31,0,0,0-.083-.713A6.965,6.965,0,0,1,166.65-590.575ZM174.507-599c-.523-1.316-1.057-2.478-1.442-3.687-.277-.871-.751-1.071-1.619-1.068q-16.687.046-33.374.02c-2.293,0-4.585-.013-6.877.015-.327,0-.852.113-.947.325-.637,1.417-1.181,2.875-1.786,4.4Zm-3.691,52.573a6.466,6.466,0,0,0-6.462,6.415,6.468,6.468,0,0,0,6.452,6.428,6.46,6.46,0,0,0,6.458-6.418A6.455,6.455,0,0,0,170.815-546.431Zm-66.587,12.838A6.455,6.455,0,0,0,110.69-540a6.46,6.46,0,0,0-6.441-6.43,6.463,6.463,0,0,0-6.464,6.41A6.457,6.457,0,0,0,104.228-533.593Zm23.525-62.3c-.192,1.805.207,3.273,1.778,4.167a3.309,3.309,0,0,0,3.794-.219,3.767,3.767,0,0,0,1.392-3.948Zm10.122.009c-.2,1.726.157,3.169,1.652,4.091a3.318,3.318,0,0,0,3.8-.075,3.748,3.748,0,0,0,1.51-4.016Zm10.118-.052c-.2,1.855.192,3.324,1.772,4.214a3.313,3.313,0,0,0,3.793-.227,3.776,3.776,0,0,0,1.379-3.987h-6.944Zm20.294.048a3.735,3.735,0,0,0,1.634,4.141,3.5,3.5,0,0,0,3.8-.164,3.535,3.535,0,0,0,1.359-4.024c-2.1,0-4.211,0-6.324,0C168.594-595.935,168.433-595.9,168.287-595.89ZM158.1-595.9c-.191,1.821.2,3.291,1.779,4.18a3.315,3.315,0,0,0,3.792-.229,3.78,3.78,0,0,0,1.38-3.985c-2.1,0-4.146,0-6.191,0C158.633-595.937,158.4-595.918,158.1-595.9Zm28.239,45.838c-.041-2.438-.722-3.309-2.379-3.14-1.414.145-1.853,1.056-1.478,3.14Zm-97.4-2.983v2.907h1.872v-2.907Z" transform="translate(0 -41.459)" fill="#df6618"/>
    <path id="Path_6009" data-name="Path 6009" d="M272.354-652.2v1.4q0,21.343,0,42.685a10.711,10.711,0,0,1-.058,1.311,1.36,1.36,0,0,1-1.442,1.279,1.356,1.356,0,0,1-1.459-1.259,9.356,9.356,0,0,1-.073-1.309q-.005-21.342,0-42.685v-1.363H211.436V-651q0,12.694,0,25.388c0,.371.011.744-.025,1.112a1.425,1.425,0,0,1-1.477,1.466,1.427,1.427,0,0,1-1.5-1.45,9.949,9.949,0,0,1-.032-1.111q0-12.644,0-25.287V-652.2c-.58,0-1.076.019-1.569,0a2.229,2.229,0,0,1-2.412-2.3c-.066-1.818-.064-3.642-.005-5.46a2.237,2.237,0,0,1,2.381-2.337c.2-.01.4,0,.607,0q32.975,0,65.949.013a4.793,4.793,0,0,1,1.856.333,2.067,2.067,0,0,1,1.154,2.084c0,1.686.02,3.372,0,5.057a2.337,2.337,0,0,1-2.619,2.622C273.338-652.192,272.936-652.2,272.354-652.2Zm.942-7.023h-65.78v3.915H273.3Z" transform="translate(-88.513)" fill="#df6618"/>
    <path id="Path_6010" data-name="Path 6010" d="M266.389-454.234q-6.827,0-13.654,0c-2.2,0-2.834-.624-2.837-2.813q-.006-5.613,0-11.226c0-2.2.611-2.8,2.841-2.793,2.46.011,4.921.027,7.38.078a17.737,17.737,0,0,1,9.534,3.213c3.763,2.493,7.508,5.013,11.277,7.5a4.526,4.526,0,0,1,2.226,3.426,2.184,2.184,0,0,1-1.91,2.524,6.936,6.936,0,0,1-1.2.091Q273.216-454.229,266.389-454.234Zm13.432-3.036c-.338-.3-.427-.395-.534-.466-3.756-2.5-7.5-5.008-11.278-7.481a21.278,21.278,0,0,0-2.823-1.555c-3.87-1.765-7.987-1.206-12.042-1.2-.049,0-.1.086-.209.192,0,3.072.031,6.2-.019,9.335-.015.905.21,1.2,1.167,1.2,8.188-.039,16.376-.023,24.564-.023Z" transform="translate(-122.502 -142.776)" fill="#df6618"/>
    <path id="Path_6011" data-name="Path 6011" d="M155.378-454.374c-3,0-6,.119-8.991-.037a5.856,5.856,0,0,1-5.179-4.572,2.518,2.518,0,0,1,.89-2.714q3.626-2.894,7.292-5.737a17.725,17.725,0,0,1,11.106-3.668c.977,0,1.956-.023,2.932,0,1.741.048,2.52.837,2.526,2.572q.018,5.814,0,11.628c0,1.779-.8,2.6-2.588,2.622-2.663.027-5.326.007-7.988.007Zm7.474-2.929v-10.689c-5.078-.448-9.509.763-13.243,4.314-1.5,1.428-3.262,2.584-4.9,3.865-.151.118-.294.245-.427.355a3.213,3.213,0,0,0,3.456,2.15c3.469.015,6.937,0,10.406,0Z" transform="translate(-41.292 -142.744)" fill="#df6618"/>
    <path id="Path_6012" data-name="Path 6012" d="M255.047-391.106c.639,0,1.281-.039,1.915.01a1.374,1.374,0,0,1,1.4,1.423,1.318,1.318,0,0,1-1.308,1.5c-1.373.071-2.755.068-4.128,0a1.315,1.315,0,0,1-1.3-1.5,1.362,1.362,0,0,1,1.4-1.422C253.7-391.139,254.375-391.106,255.047-391.106Z" transform="translate(-123.794 -202.463)" fill="#df6618"/>
    <path id="Path_6013" data-name="Path 6013" d="M401.74-357.938a4.957,4.957,0,0,1,4.967-4.922,4.978,4.978,0,0,1,4.915,4.982,4.978,4.978,0,0,1-4.975,4.923A4.962,4.962,0,0,1,401.74-357.938Zm6.831.018a1.941,1.941,0,0,0-1.858-1.9,1.918,1.918,0,0,0-1.925,1.923,1.912,1.912,0,0,0,1.85,1.894A1.931,1.931,0,0,0,408.571-357.92Z" transform="translate(-235.864 -223.561)" fill="#df6618"/>
    <path id="Path_6014" data-name="Path 6014" d="M143.974-362.86a4.977,4.977,0,0,1,4.96,4.939A4.982,4.982,0,0,1,144-352.955a4.961,4.961,0,0,1-4.951-4.939A4.959,4.959,0,0,1,143.974-362.86Zm-.017,3.044a1.9,1.9,0,0,0-1.852,1.988,1.9,1.9,0,0,0,1.91,1.828,1.916,1.916,0,0,0,1.858-1.986A1.919,1.919,0,0,0,143.957-359.816Z" transform="translate(-39.747 -223.561)" fill="#df6618"/>
  </g>
</svg>
