<svg xmlns="http://www.w3.org/2000/svg" width="118.366" height="118.383" viewBox="0 0 118.366 118.383">
  <g id="Group_12947" data-name="Group 12947" transform="translate(-445.286 1104.054)">
    <path id="Path_6020" data-name="Path 6020" d="M445.286-1050.4a78.448,78.448,0,0,1,4.9-6.514,5.792,5.792,0,0,0,1.519-5.636,59.158,59.158,0,0,1-.817-6.062,4.009,4.009,0,0,1,2.145-4.149c2.3-1.335,4.59-2.672,6.913-3.958a2.414,2.414,0,0,0,1.332-1.729c.558-2.515,1.229-5,1.827-7.511a4.255,4.255,0,0,1,3.849-3.575c2.668-.369,5.332-.783,7.983-1.258a2.38,2.38,0,0,0,1.357-.869c1.573-2.141,3.093-4.321,4.591-6.515a4.248,4.248,0,0,1,4.887-1.925c2.547.6,5.1,1.194,7.664,1.683a2.9,2.9,0,0,0,1.9-.357c2.156-1.343,4.24-2.8,6.353-4.212,2.135-1.427,3.457-1.418,5.626.032,2.112,1.413,4.2,2.865,6.351,4.215a2.727,2.727,0,0,0,1.8.341c2.681-.518,5.34-1.146,8.006-1.742a3.98,3.98,0,0,1,4.421,1.744c1.518,2.134,3.054,4.256,4.491,6.444a2.771,2.771,0,0,0,2.141,1.3c2.516.349,5.02.78,7.536,1.129a4.2,4.2,0,0,1,3.773,3.514c.626,2.579,1.224,5.165,1.922,7.725a2.551,2.551,0,0,0,1.037,1.375c2.266,1.384,4.593,2.667,6.886,4.007A4.208,4.208,0,0,1,558-1068.09c-.356,2.593-.715,5.188-.967,7.792a2.748,2.748,0,0,0,.545,1.757c1.59,2.08,3.253,4.106,4.921,6.125a4.269,4.269,0,0,1,.481,5.234c-1.288,2.322-2.558,4.655-3.757,7.023a2.552,2.552,0,0,0-.161,1.708c.741,2.547,1.547,5.077,2.4,7.589a4.263,4.263,0,0,1-1.408,5.063c-1.972,1.664-3.911,3.37-5.9,5.013a2.3,2.3,0,0,0-.956,1.835c-.092,2.5-.28,5-.415,7.5-.142,2.618-.954,3.753-3.4,4.627-2.426.868-4.875,1.675-7.281,2.592a2.551,2.551,0,0,0-1.276,1.152c-1.157,2.387-2.234,4.814-3.308,7.241a4.261,4.261,0,0,1-4.461,2.78c-2.656-.12-5.313-.217-7.971-.234a2.564,2.564,0,0,0-1.6.628c-1.67,1.54-3.222,3.209-4.9,4.743a36.285,36.285,0,0,1-3,2.253h-1.85c-2.883-1.247-5.76-2.509-8.658-3.723a1.691,1.691,0,0,0-1.183,0c-2.9,1.213-5.774,2.475-8.657,3.722h-1.85a31.281,31.281,0,0,1-2.836-2.1c-1.728-1.589-3.339-3.305-5.063-4.9a2.566,2.566,0,0,0-1.6-.63c-2.5.012-5.009.06-7.5.238a4.692,4.692,0,0,1-5.182-3.292c-.891-2.208-1.983-4.335-2.916-6.528a2.423,2.423,0,0,0-1.6-1.49c-2.372-.783-4.726-1.622-7.083-2.45-2.435-.855-3.275-2.007-3.417-4.611-.141-2.575-.264-5.152-.477-7.722a2.379,2.379,0,0,0-.724-1.435c-1.979-1.771-4.007-3.489-6.043-5.195a4.254,4.254,0,0,1-1.451-5.046c.847-2.512,1.667-5.036,2.4-7.583a2.711,2.711,0,0,0-.181-1.812c-1.424-2.8-2.938-5.561-4.422-8.335Zm83.327,53.6v.263c1.386,0,2.776-.065,4.156.023a1.533,1.533,0,0,0,1.754-1.077c1.03-2.4,2.171-4.76,3.216-7.158a4.659,4.659,0,0,1,2.955-2.707c2.552-.855,5.074-1.8,7.627-2.656a1.275,1.275,0,0,0,.995-1.334c.127-2.655.347-5.305.433-7.961a4.825,4.825,0,0,1,1.885-3.779c1.99-1.643,3.915-3.365,5.909-5a1.467,1.467,0,0,0,.554-1.873c-.844-2.434-1.555-4.914-2.4-7.347a5.046,5.046,0,0,1,.43-4.42c1.258-2.206,2.385-4.486,3.652-6.686a1.508,1.508,0,0,0-.219-2.03c-1.669-1.968-3.23-4.027-4.889-6a4.838,4.838,0,0,1-1.146-3.964c.355-2.632.649-5.273,1.042-7.9a1.33,1.33,0,0,0-.756-1.586c-2.384-1.334-4.737-2.726-7.117-4.07a4.4,4.4,0,0,1-2.22-2.943c-.627-2.618-1.316-5.222-1.908-7.848a1.493,1.493,0,0,0-1.441-1.333c-2.592-.359-5.171-.821-7.766-1.157a4.644,4.644,0,0,1-3.421-2.088c-1.528-2.22-3.1-4.41-4.621-6.635a1.241,1.241,0,0,0-1.533-.607c-2.617.634-5.257,1.172-7.881,1.776a4.612,4.612,0,0,1-3.845-.691c-2.222-1.526-4.49-2.983-6.7-4.521a1.307,1.307,0,0,0-1.745,0c-2.212,1.539-4.476,3-6.7,4.525a4.628,4.628,0,0,1-3.847.69c-2.624-.6-5.265-1.143-7.882-1.776a1.239,1.239,0,0,0-1.532.606c-1.5,2.194-3.065,4.342-4.556,6.54a4.748,4.748,0,0,1-3.486,2.192c-2.518.333-5.018.8-7.538,1.108a1.747,1.747,0,0,0-1.73,1.6c-.542,2.479-1.233,4.925-1.792,7.4a4.744,4.744,0,0,1-2.471,3.292c-2.322,1.287-4.63,2.6-6.9,3.988a1.736,1.736,0,0,0-.761,1.309c.247,2.566.578,5.126.967,7.675a5.348,5.348,0,0,1-1.231,4.61c-1.61,1.865-3.061,3.868-4.683,5.722a1.7,1.7,0,0,0-.178,2.33c1.214,2.1,2.275,4.282,3.488,6.381a5.187,5.187,0,0,1,.448,4.632c-.853,2.389-1.532,4.84-2.364,7.237a1.464,1.464,0,0,0,.555,1.87c2.052,1.689,4.049,3.445,6.081,5.158a4.579,4.579,0,0,1,1.7,3.512c.1,2.655.32,5.306.432,7.961a1.406,1.406,0,0,0,1.113,1.491c2.52.831,5,1.773,7.52,2.613a4.651,4.651,0,0,1,2.955,2.706c1.045,2.4,2.186,4.753,3.215,7.157a1.539,1.539,0,0,0,1.751,1.077c2.654-.146,5.314-.174,7.97-.29a4.468,4.468,0,0,1,3.526,1.4c1.852,1.853,3.762,3.649,5.592,5.523a1.505,1.505,0,0,0,2,.41c2.339-1.081,4.743-2.02,7.091-3.082a4.858,4.858,0,0,1,4.228-.006c2.211.993,4.47,1.88,6.661,2.912a1.97,1.97,0,0,0,2.69-.461c1.727-1.863,3.61-3.58,5.415-5.372a4.317,4.317,0,0,1,3.325-1.327C525.992-996.775,527.3-996.807,528.613-996.807Z" fill="#df6618"/>
    <path id="Path_6021" data-name="Path 6021" d="M563.448-967.319c-1.045,2.581-3.024,3.449-5.641,3.324-1.846-.088-3.7.007-5.548-.028a4.564,4.564,0,0,1-4.771-4.607c-.082-5.315-.044-10.633-.024-15.949,0-1.228.666-1.906,1.7-1.917,1.073-.012,1.738.691,1.744,1.991.022,4.931.009,9.863.012,14.794,0,2.037.2,2.23,2.264,2.231,1.772,0,3.545.013,5.317,0,1.283-.013,1.656-.368,1.658-1.671q.018-13.581,0-27.161c0-1.25-.436-1.662-1.679-1.674q-2.948-.028-5.9,0c-1.232.012-1.63.429-1.659,1.7-.025,1.117.024,2.236-.034,3.351a1.668,1.668,0,0,1-1.666,1.716,1.67,1.67,0,0,1-1.748-1.75c-.052-1.308-.067-2.622.006-3.928a4.644,4.644,0,0,1,4.63-4.54c2.271-.068,4.548-.063,6.82,0,2.529.067,4.041,1.536,4.821,4.711a17.737,17.737,0,0,0,1.738-1.076,17.5,17.5,0,0,0,6.982-13.726c.074-2.156.2-4.31.277-6.466.12-3.43,2.345-5.168,5.711-4.433a7.639,7.639,0,0,1,6.161,7.618c0,3.813-.141,7.626-.224,11.439-.04,1.82.048,1.917,1.83,1.917,4.778,0,9.556.03,14.334-.011,2.709-.023,4.87.9,6,3.453,1.1,2.485.517,4.737-1.441,6.748a6.019,6.019,0,0,1,1.175,4.737,5.893,5.893,0,0,1-2.77,3.976c1.46,3.179.9,5.866-1.782,7.935a20.184,20.184,0,0,1,.675,2.968,5.591,5.591,0,0,1-5.288,5.987c-2.54.095-5.086.051-7.628.027a1.678,1.678,0,0,1-1.826-1.672,1.739,1.739,0,0,1,1.874-1.768c2.234-.035,4.47,0,6.7-.016,1.715-.01,2.724-.872,2.726-2.293s-1.014-2.3-2.716-2.326c-.424-.007-.849.014-1.271-.014a1.664,1.664,0,0,1-1.732-1.641,1.688,1.688,0,0,1,1.712-1.794c1.076-.058,2.157-.006,3.236-.023,1.621-.026,2.613-.9,2.62-2.283s-.983-2.29-2.591-2.335c-.462-.013-.926.014-1.387-.015a1.664,1.664,0,0,1-1.74-1.632,1.683,1.683,0,0,1,1.7-1.8c1.153-.06,2.311-.009,3.467-.025,1.624-.023,2.617-.891,2.628-2.274s-.977-2.3-2.582-2.344c-.462-.013-.926.013-1.387-.015a1.665,1.665,0,0,1-1.748-1.624,1.7,1.7,0,0,1,1.694-1.812c.69-.054,1.386-.009,2.08-.021,1.628-.028,2.621-.886,2.637-2.267.016-1.43-1-2.345-2.691-2.349-4.971-.013-9.941,0-14.912-.005-3.5,0-5.158-1.7-5.079-5.2.085-3.774.183-7.549.243-11.324a4.3,4.3,0,0,0-3.687-4.57c-.873-.1-1.231.152-1.278,1.1a97.979,97.979,0,0,1-.7,10.131c-.882,5.693-4.066,10.052-8.706,13.37a6.3,6.3,0,0,1-2.059,1.012c-.88.221-1.122.62-1.117,1.507q.059,9.882-.005,19.764a1.449,1.449,0,0,0,1.185,1.633,27.834,27.834,0,0,0,9.191,1.477c2.273-.028,4.547-.015,6.82,0,1.383.009,2.137.63,2.15,1.72s-.732,1.761-2.109,1.734c-4.612-.088-9.255.4-13.813-.714C565.879-966.635,564.738-966.97,563.448-967.319Z" transform="translate(-70.601 -56.295)" fill="#df6618"/>
    <path id="Path_6022" data-name="Path 6022" d="M491.2-998.557c.623-16.036,7.35-28.723,20.823-37.685a2.225,2.225,0,0,1,1.576-.464,2.6,2.6,0,0,1,1.417,1.268c.36.8-.2,1.434-.866,1.932a64.972,64.972,0,0,0-5.691,4.327c-9.535,8.873-14.252,19.835-13.683,32.891.827,18.964,15.671,35.7,34.437,38.636,13.777,2.158,25.822-1.67,35.93-11.363.222-.213.432-.44.664-.643a1.746,1.746,0,0,1,2.491-.106,1.69,1.69,0,0,1-.073,2.56,63.376,63.376,0,0,1-5.287,4.648,44.861,44.861,0,0,1-69.527-22.1A45.275,45.275,0,0,1,491.2-998.557Z" transform="translate(-31.734 -46.524)" fill="#df6618"/>
    <path id="Path_6023" data-name="Path 6023" d="M596.926-1057.9c23.686-.09,42.841,16.423,45.931,38.188a44.165,44.165,0,0,1-6.129,30.134,4.374,4.374,0,0,1-.75,1.016,1.59,1.59,0,0,1-2.119.131,1.568,1.568,0,0,1-.6-2.031,9.687,9.687,0,0,1,.687-1.2c15.041-24.779.233-57.325-28.3-62.175a41.143,41.143,0,0,0-20.939,1.78c-.254.089-.505.188-.765.258a1.76,1.76,0,0,1-2.321-1.12,1.738,1.738,0,0,1,1.248-2.15A42.3,42.3,0,0,1,596.926-1057.9Z" transform="translate(-94.176 -31.903)" fill="#df6618"/>
  </g>
</svg>
