<svg xmlns="http://www.w3.org/2000/svg" width="49.328" height="46.256" viewBox="0 0 49.328 46.256">
  <g id="Group_12928" data-name="Group 12928" transform="translate(-42 -228.858)">
    <path id="Path_3974" data-name="Path 3974" d="M42,232.712c.015-.013.04-.023.045-.039.962-2.855,2.3-3.815,5.339-3.815q19.535,0,39.07,0a4.629,4.629,0,1,1,.4,9.249c-.26.014-.522.008-.782.008-12.8,0-25.605-.041-38.408.031-2.972.017-5.051-1.232-5.664-3.99Z" transform="translate(0)" fill="#fff"/>
    <path id="Path_3975" data-name="Path 3975" d="M42,386.379c.074-.225.151-.449.223-.675a4.574,4.574,0,0,1,4.158-3.2c.22-.011.441-.014.662-.014q19.625,0,39.249-.008a4.983,4.983,0,0,1,3.407,1.1,4.629,4.629,0,0,1,1.371,5.024,4.57,4.57,0,0,1-4.115,3.1c-.2.011-.4.016-.6.016q-19.685,0-39.37,0a4.646,4.646,0,0,1-4.8-3.333c-.056-.188-.123-.374-.185-.56Z" transform="translate(0 -135.119)" fill="#fff"/>
    <path id="Path_3976" data-name="Path 3976" d="M42,539.923a2.371,2.371,0,0,0,.125-.278c.712-2.318,2.76-3.674,5.614-3.679q8.066-.013,16.132,0c3.083,0,6.166-.016,9.249.005,3.061.021,5.466,1.916,5.6,4.376.149,2.641-2.277,4.843-5.434,4.869-3.608.029-7.218.008-10.826.009H48.125c-3.286,0-5.094-1.13-6.033-3.767-.012-.034-.061-.058-.092-.087Z" transform="translate(0 -270.116)" fill="#fff"/>
    <path id="Path_3977" data-name="Path 3977" d="M383.952,541.367c-.095.3-.177.613-.287.913a4.63,4.63,0,1,1,.065-2.974c.077.244.148.491.221.736Z" transform="translate(-292.63 -270.201)" fill="#fff"/>
  </g>
</svg>
