<svg xmlns="http://www.w3.org/2000/svg" width="125.627" height="125.839" viewBox="0 0 125.627 125.839">
  <g id="Group_10" data-name="Group 10" transform="translate(606.399 356.559)">
    <path id="Path_63" data-name="Path 63" d="M-462.1-230.72c-4.131-.5-8.158-.935-12.167-1.5a4.31,4.31,0,0,1-3.688-5.161,4.382,4.382,0,0,1,5.237-3.411c17.448,3.027,33.106-.858,46.438-12.63,29.828-26.337,21.62-75.032-15.109-90.251a54.467,54.467,0,0,0-28.273-3.593,4.439,4.439,0,0,1-5.059-3.692,4.411,4.411,0,0,1,3.832-4.955,62.741,62.741,0,0,1,70.1,48.707A62.767,62.767,0,0,1-449.566-232.3C-453.7-231.469-457.956-231.227-462.1-230.72Z" transform="translate(-81.451 0)" fill="#df6618"/>
    <path id="Path_64" data-name="Path 64" d="M-486.273-233.555c0-5.79.024-11.58-.008-17.369-.024-4.261,1.708-7.541,5.485-9.516,3.831-2,7.559-1.511,11.058.989,8.044,5.747,16.109,11.463,24.137,17.233,6.348,4.564,6.363,12.7.024,17.264q-12.147,8.741-24.362,17.389a9.808,9.808,0,0,1-10.826.873,9.738,9.738,0,0,1-5.5-9.221Q-486.283-224.734-486.273-233.555Z" transform="translate(-76.216 -60.203)" fill="#df6618"/>
    <path id="Path_65" data-name="Path 65" d="M-576.9-286.14a24.185,24.185,0,0,1-1.11,2.573c-1.734,3.039-3.569,6.021-5.28,9.073-1.328,2.369-3.724,3.3-5.973,2.183a4.334,4.334,0,0,1-1.836-6.07c1.909-3.512,3.944-6.961,6.053-10.358a4.287,4.287,0,0,1,5.063-1.7A4.766,4.766,0,0,1-576.9-286.14Z" transform="translate(-9.341 -41.8)" fill="#df6618"/>
    <path id="Path_66" data-name="Path 66" d="M-581.325-124.376a4.553,4.553,0,0,1-2.979,4.546,4.018,4.018,0,0,1-4.817-1.613c-2.112-3.807-4.134-7.676-5.955-11.629a4.1,4.1,0,0,1,2.362-5.3A4.334,4.334,0,0,1-587.1-136.4q2.7,5.2,5.332,10.431A6.976,6.976,0,0,1-581.325-124.376Z" transform="translate(-6.982 -138.207)" fill="#df6618"/>
    <path id="Path_67" data-name="Path 67" d="M-537.79-326.418a4.7,4.7,0,0,1-4.027-2.969,4.069,4.069,0,0,1,1.267-4.812c3.653-2.373,7.361-4.679,11.179-6.77,2.012-1.1,4.512.056,5.519,2.119a4.391,4.391,0,0,1-1.607,5.636q-4.993,3.062-10.046,6.023A11.767,11.767,0,0,1-537.79-326.418Z" transform="translate(-40.793 -9.623)" fill="#df6618"/>
    <path id="Path_68" data-name="Path 68" d="M-606.4-205.589c.211-2.584.322-5.181.66-7.748a4.247,4.247,0,0,1,5.02-3.831c2.323.321,3.755,2.371,3.627,4.964q-.258,5.247-.332,10.5c-.039,2.753-1.672,4.756-4.107,4.839-2.623.09-4.479-1.674-4.623-4.482-.072-1.407-.013-2.822-.013-4.233Z" transform="translate(0 -88.414)" fill="#df6618"/>
    <path id="Path_69" data-name="Path 69" d="M-535.237-58.945a10.6,10.6,0,0,1-2.388-.872c-3.291-2.193-6.579-4.4-9.759-6.749a4.262,4.262,0,0,1-.872-6.168,4.408,4.408,0,0,1,6.219-.658c2.981,2.084,6.006,4.106,9.025,6.136a4.463,4.463,0,0,1,1.935,5.1A4.712,4.712,0,0,1-535.237-58.945Z" transform="translate(-36.293 -179.055)" fill="#df6618"/>
  </g>
</svg>
