<svg xmlns="http://www.w3.org/2000/svg" width="103.153" height="109.733" viewBox="0 0 103.153 109.733">
  <g id="Group_12944" data-name="Group 12944" transform="translate(454.001 274.656)">
    <path id="Path_5984" data-name="Path 5984" d="M-445.1-54.6a4.042,4.042,0,0,1-2.082-2.67c-2.155-6.984-4.285-13.977-6.6-20.907-.752-2.248.522-4.452,3.031-4.1.919.129,1.282-.309,1.627-1.095q5.5-12.542,11.065-25.051c1.124-2.532,3.493-3.753,5.9-2.9a6.794,6.794,0,0,1,2.515,1.719c4.2,4.389,8.328,8.839,12.479,13.27.219.234.422.482.425.486a26.345,26.345,0,0,1,5.062-2.016,13.4,13.4,0,0,0,4.873-1.771,9.31,9.31,0,0,1,8.057-.74,1.015,1.015,0,0,0,1.391-.473q5.946-8.518,11.943-17a4.8,4.8,0,0,1,8.233.2c.156.238.3.486.451.728,3.563,5.727,7.141,11.445,10.673,17.191a1.279,1.279,0,0,0,1.633.708c1.419-.348,2.859-.62,4.3-.882a4.789,4.789,0,0,1,5.591,5.6c-.678,3.538-1.426,7.062-2.141,10.593-.084.416-.157.834-.268,1.432,1.1,0,2.117-.008,3.131,0,2.286.022,3.459,1.6,2.773,3.789-2.269,7.247-4.569,14.484-6.83,21.733a3.726,3.726,0,0,1-1.915,2.162Zm90.836-24.408H-450.6c.121.419.213.758.318,1.094,1.033,3.3,2.1,6.59,3.081,9.9a1.392,1.392,0,0,0,1.625,1.181q31.02-.051,62.04-.025c.393,0,.788-.018,1.178.021a1.433,1.433,0,0,1,1.4,1.363,1.44,1.44,0,0,1-1.119,1.706,5.789,5.789,0,0,1-1.484.12q-30.377.008-60.754,0h-1.478c.527,1.666,1.079,3.172,1.464,4.719.225.9.633,1.127,1.528,1.126q40.342-.037,80.684-.02h1.186l1.818-5.826h-1.338q-6.911,0-13.822,0c-1.35,0-2.089-.583-2.1-1.6-.015-1.044.691-1.605,2.059-1.607,4.286-.005,8.572,0,12.858-.005,1.1,0,2.493.349,3.225-.185s.826-1.964,1.16-3.014C-356.134-73.01-355.217-75.967-354.264-79.011Zm-66.956-3.316c-.544-1.886-1.027-3.631-1.567-5.358a.977.977,0,0,0-.655-.515,1.573,1.573,0,0,1-1.432-1.707,1.613,1.613,0,0,1,1.769-1.5c1-.031,2-.015,3-.006.579.005,1.063.038,1.336-.711a1.286,1.286,0,0,0-.3-1.579c-4.3-4.537-8.559-9.107-12.836-13.663-1.447-1.542-2.512-1.357-3.367.577q-5.17,11.688-10.333,23.379c-.139.314-.25.64-.4,1.041h4.086c.046-1.647.557-2.335,1.656-2.3,1.075.032,1.576.8,1.52,2.341Zm25.99-15.916c.524.049.891.109,1.26.114a9.211,9.211,0,0,1,6.79,2.909,1.572,1.572,0,0,0,1.7.467c3.456-.718,6.918-1.4,10.375-2.113,2.041-.418,4.079-.854,6.212-1.3-.245-.43-.408-.741-.593-1.039q-5.058-8.133-10.121-16.262c-1.147-1.842-2.25-1.876-3.492-.108q-5.725,8.144-11.444,16.293C-394.745-99-394.93-98.7-395.23-98.243Zm34.987,15.911c.828-4.086,1.644-8.1,2.457-12.118.341-1.684-.507-2.556-2.174-2.219q-8.23,1.659-16.457,3.333c-2.744.558-5.485,1.131-8.228,1.7a29.829,29.829,0,0,0,4.014.25,1.518,1.518,0,0,1,1.575,1.556,1.53,1.53,0,0,1-1.386,1.623c-.275.057-.693.2-.754.393-.562,1.79-1.06,3.6-1.59,5.451H-368.1c-.472-.913-.648-1.828.233-2.361a2.208,2.208,0,0,1,1.844-.092c1.039.534.773,1.534.385,2.487Zm-59.29-5.824c.492,1.718,1,3.269,1.365,4.854.192.836.565,1.035,1.38,1.033,9.211-.029,18.423-.017,27.634-.021.962,0,2.2.322,2.809-.152.65-.509.725-1.775,1.009-2.723.289-.964.526-1.943.806-2.991Zm3.975-3.348h27.1a6.015,6.015,0,0,0-5.6-3.387,4.562,4.562,0,0,1-3.394-1.149,6.675,6.675,0,0,0-8.673-.243,6.153,6.153,0,0,1-4.169,1.42A6.1,6.1,0,0,0-415.557-91.5Z" transform="translate(0 -110.32)" fill="#df6618"/>
    <path id="Path_5985" data-name="Path 5985" d="M-373.748-208.321c3.05-.024,5.418,2.322,5.022,5.114-.484,3.419-1.276,6.8-1.99,10.18a1.507,1.507,0,0,1-1.914,1.109,1.571,1.571,0,0,1-1.149-1.985c.552-2.8,1.128-5.593,1.694-8.389.049-.244.106-.489.137-.736.188-1.507-.552-2.272-2.067-2-2.491.454-4.966.992-7.447,1.5q-10.954,2.233-21.91,4.46c-.75.151-1.379.388-1.62,1.182a1.807,1.807,0,0,0,.653,1.905q11.677,11.657,23.335,23.333c.546.547,1.2.992,1.888.6a2.589,2.589,0,0,0,1.133-1.5c.905-4.072,1.712-8.167,2.556-12.253.276-1.337.956-1.9,2-1.69,1,.206,1.4,1.046,1.13,2.369-.825,4.054-1.654,8.106-2.464,12.163a4.808,4.808,0,0,1-3.4,4.026,4.809,4.809,0,0,1-5.076-1.412q-11.693-11.716-23.411-23.408a4.812,4.812,0,0,1-1.416-5.076,4.815,4.815,0,0,1,4.025-3.4q14.523-2.941,29.043-5.9C-374.512-208.224-374.015-208.28-373.748-208.321Z" transform="translate(-32.618 -47.345)" fill="#df6618"/>
    <path id="Path_5986" data-name="Path 5986" d="M-264.34-269.569a4.816,4.816,0,0,1,5.679-4.993c9.9,1.987,19.785,4.025,29.68,6.022a4.843,4.843,0,0,1,4.068,3.5,4.828,4.828,0,0,1-1.519,5.053c-1.509,1.471-2.979,2.982-4.478,4.464-.961.95-1.881,1.029-2.6.254-.666-.714-.549-1.634.347-2.538q2.226-2.245,4.471-4.471c.534-.529,1.068-1.161.64-1.864a2.765,2.765,0,0,0-1.568-1.208c-9.777-2.043-19.567-4.023-29.357-6.006-1.574-.319-2.388.664-2.032,2.417q1.266,6.239,2.541,12.477c1.128,5.522,2.267,11.041,3.381,16.565a1.826,1.826,0,0,0,1.212,1.609,1.786,1.786,0,0,0,1.887-.7q6.168-6.183,12.351-12.352a5.305,5.305,0,0,1,.877-.78,1.467,1.467,0,0,1,1.956.22,1.5,1.5,0,0,1,.215,1.96,4.388,4.388,0,0,1-.7.8c-4.115,4.119-8.245,8.224-12.345,12.358a4.883,4.883,0,0,1-5.234,1.54,4.95,4.95,0,0,1-3.407-4.154q-2.929-14.528-5.9-29.048C-264.272-268.9-264.311-269.361-264.34-269.569Z" transform="translate(-135.367)" fill="#df6618"/>
    <path id="Path_5987" data-name="Path 5987" d="M-317.4-153.234a1.63,1.63,0,0,1-1.425-1.811,1.6,1.6,0,0,1,1.742-1.368,1.608,1.608,0,0,1,1.432,1.79A1.652,1.652,0,0,1-317.4-153.234Z" transform="translate(-96.467 -84.389)" fill="#df6618"/>
    <path id="Path_5988" data-name="Path 5988" d="M-235.761-244.689a1.627,1.627,0,0,1,1.626,1.627,1.653,1.653,0,0,1-1.586,1.569,1.592,1.592,0,0,1-1.6-1.635A1.575,1.575,0,0,1-235.761-244.689Z" transform="translate(-154.651 -21.388)" fill="#df6618"/>
    <path id="Path_5989" data-name="Path 5989" d="M-172.253-234.125a1.59,1.59,0,0,1-1.607,1.625,1.612,1.612,0,0,1-1.562-1.576,1.6,1.6,0,0,1,1.618-1.62A1.58,1.58,0,0,1-172.253-234.125Z" transform="translate(-198.831 -27.807)" fill="#df6618"/>
    <path id="Path_5990" data-name="Path 5990" d="M-229.9-210.235a1.553,1.553,0,0,1,1.521-1.587,1.576,1.576,0,0,1,1.653,1.575,1.645,1.645,0,0,1-1.645,1.613A1.61,1.61,0,0,1-229.9-210.235Z" transform="translate(-159.945 -44.846)" fill="#df6618"/>
    <path id="Path_5991" data-name="Path 5991" d="M-342.078-135.826a1.563,1.563,0,0,1-1.658,1.562,1.542,1.542,0,0,1-1.509-1.594,1.609,1.609,0,0,1,1.539-1.591A1.632,1.632,0,0,1-342.078-135.826Z" transform="translate(-77.622 -97.929)" fill="#df6618"/>
    <path id="Path_5992" data-name="Path 5992" d="M-191.819-210.267a1.565,1.565,0,0,1,1.54,1.678,1.6,1.6,0,0,1-1.608,1.517,1.64,1.64,0,0,1-1.562-1.586A1.6,1.6,0,0,1-191.819-210.267Z" transform="translate(-185.964 -45.956)" fill="#df6618"/>
    <path id="Path_5993" data-name="Path 5993" d="M-221.429-180.6a1.587,1.587,0,0,1-1.692,1.536,1.534,1.534,0,0,1-1.485-1.611,1.567,1.567,0,0,1,1.665-1.554A1.628,1.628,0,0,1-221.429-180.6Z" transform="translate(-163.726 -65.967)" fill="#df6618"/>
    <path id="Path_5994" data-name="Path 5994" d="M-309.236-181.265a1.541,1.541,0,0,1,1.561,1.543,1.582,1.582,0,0,1-1.6,1.621,1.571,1.571,0,0,1-1.554-1.664A1.531,1.531,0,0,1-309.236-181.265Z" transform="translate(-102.182 -66.656)" fill="#df6618"/>
    <path id="Path_5995" data-name="Path 5995" d="M-342.028-173.905a1.618,1.618,0,0,1,1.552,1.586,1.6,1.6,0,0,1-1.656,1.578,1.539,1.539,0,0,1-1.522-1.683A1.552,1.552,0,0,1-342.028-173.905Z" transform="translate(-78.756 -71.908)" fill="#df6618"/>
    <path id="Path_5996" data-name="Path 5996" d="M-370.216-167a1.584,1.584,0,0,1-1.634,1.6,1.625,1.625,0,0,1-1.561-1.58,1.6,1.6,0,0,1,1.649-1.586A1.562,1.562,0,0,1-370.216-167Z" transform="translate(-57.519 -75.717)" fill="#df6618"/>
    <path id="Path_5997" data-name="Path 5997" d="M-210.916-236.687a1.6,1.6,0,0,1,1.62,1.613,1.623,1.623,0,0,1-1.585,1.556,1.6,1.6,0,0,1-1.611-1.627A1.57,1.57,0,0,1-210.916-236.687Z" transform="translate(-172.372 -27.099)" fill="#df6618"/>
    <path id="Path_5998" data-name="Path 5998" d="M-316.674-117.878a1.544,1.544,0,0,1-1.484,1.619,1.54,1.54,0,0,1-1.675-1.529,1.6,1.6,0,0,1,1.584-1.648A1.613,1.613,0,0,1-316.674-117.878Z" transform="translate(-95.759 -110.786)" fill="#df6618"/>
    <path id="Path_5999" data-name="Path 5999" d="M-395.769-22.107a1.606,1.606,0,0,1-1.665,1.577,1.578,1.578,0,0,1-1.531-1.591,1.616,1.616,0,0,1,1.544-1.6A1.649,1.649,0,0,1-395.769-22.107Z" transform="translate(-39.28 -179.101)" fill="#df6618"/>
    <path id="Path_6000" data-name="Path 6000" d="M-374.017-7.846a1.6,1.6,0,0,1,1.591,1.541A1.555,1.555,0,0,1-374-4.667a1.609,1.609,0,0,1-1.613-1.518A1.651,1.651,0,0,1-374.017-7.846Z" transform="translate(-55.945 -190.431)" fill="#df6618"/>
    <path id="Path_6001" data-name="Path 6001" d="M-386.094-53.206a1.606,1.606,0,0,1,1.777-1.451,1.556,1.556,0,0,1,1.409,1.69,1.6,1.6,0,0,1-1.646,1.483A1.658,1.658,0,0,1-386.094-53.206Z" transform="translate(-48.464 -157.015)" fill="#df6618"/>
    <path id="Path_6002" data-name="Path 6002" d="M-367.189-32.17a1.575,1.575,0,0,1-1.572,1.549,1.633,1.633,0,0,1-1.619-1.63,1.6,1.6,0,0,1,1.7-1.532A1.55,1.55,0,0,1-367.189-32.17Z" transform="translate(-59.681 -171.918)" fill="#df6618"/>
    <path id="Path_6003" data-name="Path 6003" d="M-205.438-82.894a1.6,1.6,0,0,1-1.614,1.627,1.644,1.644,0,0,1-1.579-1.576A1.635,1.635,0,0,1-207-84.467,1.59,1.59,0,0,1-205.438-82.894Z" transform="translate(-175.128 -135.744)" fill="#df6618"/>
    <path id="Path_6004" data-name="Path 6004" d="M-195.674-57.745a1.594,1.594,0,0,1-1.613-1.618,1.627,1.627,0,0,1,1.593-1.548,1.56,1.56,0,0,1,1.585,1.633A1.529,1.529,0,0,1-195.674-57.745Z" transform="translate(-183.224 -152.556)" fill="#df6618"/>
    <path id="Path_6005" data-name="Path 6005" d="M-224.188-54.828a1.573,1.573,0,0,1-1.763,1.447,1.6,1.6,0,0,1-1.423-1.693,1.647,1.647,0,0,1,1.67-1.477A1.609,1.609,0,0,1-224.188-54.828Z" transform="translate(-161.746 -155.667)" fill="#df6618"/>
    <path id="Path_6006" data-name="Path 6006" d="M-178.61-15.532a1.617,1.617,0,0,1,1.6,1.542,1.586,1.586,0,0,1-1.577,1.655,1.617,1.617,0,0,1-1.615-1.526A1.65,1.65,0,0,1-178.61-15.532Z" transform="translate(-195.417 -184.945)" fill="#df6618"/>
    <path id="Path_6007" data-name="Path 6007" d="M-144.143-21.322a1.588,1.588,0,0,1-1.673,1.563,1.589,1.589,0,0,1-1.526-1.6,1.635,1.635,0,0,1,1.564-1.587A1.641,1.641,0,0,1-144.143-21.322Z" transform="translate(-218.872 -179.652)" fill="#df6618"/>
  </g>
</svg>
