<svg xmlns="http://www.w3.org/2000/svg" width="105.049" height="101.248" viewBox="0 0 105.049 101.248">
  <path id="Path_6024" data-name="Path 6024" d="M1641.667-1340.6c-.183,1.07-.283,2.163-.563,3.208a11.712,11.712,0,0,1-10.913,8.723c-1.982.077-3.968.054-5.952.04-1.73-.012-2.462-.779-2.463-2.551q-.007-15.192-.006-30.384c-.015-9.529-3.388-17.714-10.412-24.132-9.193-8.4-20.044-10.941-31.91-7.279-11.75,3.626-19.138,11.8-22.127,23.75a34.264,34.264,0,0,0-.853,7.924c-.1,9.853-.071,19.708-.014,29.562.013,2.259-.8,3.338-3.062,3.124a3.506,3.506,0,0,0-.692.092,20.669,20.669,0,0,0,5.776,14.3c5.156,5.464,11.638,7.244,19.019,6.606.1-.3.208-.644.331-.989a8.587,8.587,0,0,1,7.774-5.731c2.324-.068,4.654-.075,6.978,0a8.587,8.587,0,0,1,8.281,8.524,8.551,8.551,0,0,1-7.908,8.762,65.685,65.685,0,0,1-7.282.037,8.556,8.556,0,0,1-8.016-6.25c-.051-.16-.094-.322-.167-.577h-3.061a24.885,24.885,0,0,1-25.06-20.665,18.214,18.214,0,0,1-.31-3.158c-.011-.764-.275-.972-1.012-1.012a11.739,11.739,0,0,1-11.174-9.685,18.511,18.511,0,0,1-.221-3.371c-.015-2.908-.083-5.821.061-8.723a11.8,11.8,0,0,1,11.534-11.262c1.46-.05,2.924-.007,4.439-.007.28-11.555,4.671-21.084,13.556-28.356a35.338,35.338,0,0,1,24.568-8.063,36.43,36.43,0,0,1,34.716,36.407c.9,0,1.813.028,2.719-.005a12.727,12.727,0,0,1,8.427,2.324,11.685,11.685,0,0,1,4.836,8.679c.026.3.108.6.164.9Zm-16.161,8.251c1.632,0,3.17.064,4.7-.013a7.922,7.922,0,0,0,7.561-7.312,97.474,97.474,0,0,0-.009-10.973c-.213-3.466-2.28-5.792-5.53-6.953-2.171-.775-4.444-.388-6.722-.423Zm-72.851.036v-25.711c-1.588,0-3.1-.073-4.6.014a8.016,8.016,0,0,0-7.641,7.485c-.177,3.583-.166,7.188.009,10.771a7.62,7.62,0,0,0,4.54,6.6C1547.42-1331.895,1550.042-1332.449,1552.654-1332.316Zm36.5,21.651c-1.129,0-2.259-.037-3.386.007a4.914,4.914,0,0,0-4.734,4.748,4.811,4.811,0,0,0,4.373,5.161,55.954,55.954,0,0,0,7.377,0,4.814,4.814,0,0,0,4.38-5.156,4.911,4.911,0,0,0-4.727-4.754C1591.346-1310.7,1590.25-1310.665,1589.156-1310.665Z" transform="translate(-1536.618 1398.179)" fill="#df6618"/>
</svg>
