<svg xmlns="http://www.w3.org/2000/svg" width="23.637" height="23.735" viewBox="0 0 23.637 23.735">
  <g id="Group_12952" data-name="Group 12952" transform="translate(-1205.589 220.63)">
    <path id="Path_6036" data-name="Path 6036" d="M1205.589-196.895l.875-3.2c.245-.9.495-1.792.729-2.691a.549.549,0,0,0-.045-.366,11.753,11.753,0,0,1,3.719-15.442,11.1,11.1,0,0,1,8.053-1.912,11.42,11.42,0,0,1,9.739,8.146,11.685,11.685,0,0,1-3.4,12.291,11.679,11.679,0,0,1-6.326,2.888,11.542,11.542,0,0,1-6.849-1.2.722.722,0,0,0-.559-.063q-2.849.76-5.7,1.5C1205.762-196.924,1205.7-196.916,1205.589-196.895Zm2.823-2.788c.076-.017.115-.024.152-.034,1.066-.279,2.134-.553,3.2-.843a.768.768,0,0,1,.645.084,9.488,9.488,0,0,0,8.908.589,9.706,9.706,0,0,0,5.75-10.678,9.789,9.789,0,0,0-9.144-8.057,9.564,9.564,0,0,0-6.625,2.183,9.537,9.537,0,0,0-3.608,7.042,9.515,9.515,0,0,0,1.57,5.887.53.53,0,0,1,.072.48C1209.02-201.93,1208.723-200.826,1208.412-199.683Z" fill="#fff"/>
    <path id="Path_6037" data-name="Path 6037" d="M1365.908-50.27c.539-.141.776.181.952.638.263.683.551,1.356.841,2.028a.6.6,0,0,1-.054.649c-.237.316-.466.639-.715.945a.453.453,0,0,0-.04.584,8.064,8.064,0,0,0,4.042,3.478.46.46,0,0,0,.592-.142c.294-.366.6-.723.881-1.1a.447.447,0,0,1,.6-.191c.841.393,1.68.793,2.512,1.206a.4.4,0,0,1,.172.295,2.229,2.229,0,0,1-1.012,2.113,3.538,3.538,0,0,1-3.028.386,11.75,11.75,0,0,1-6.345-4.579,7.54,7.54,0,0,1-1.4-2.561,3.35,3.35,0,0,1,.684-3.192A1.311,1.311,0,0,1,1365.908-50.27Z" transform="translate(-152.291 -163.993)" fill="#fff"/>
  </g>
</svg>
