<svg xmlns="http://www.w3.org/2000/svg" width="92.852" height="80.452" viewBox="0 0 92.852 80.452">
  <path id="Path_70" data-name="Path 70" d="M48.594-188.468,34.176-129.931l-3.46-16.725a19.324,19.324,0,0,1,13.841,5.19q5.479,5.19,5.479,13.841t-5.479,14.13A18.409,18.409,0,0,1,31-108.016a18.51,18.51,0,0,1-13.841-5.623,19.248,19.248,0,0,1-5.479-13.985,33.312,33.312,0,0,1,.433-5.479,45.36,45.36,0,0,1,1.586-6.2q1.153-3.6,3.172-8.795l13.553-40.37Zm54.5,0L88.676-129.931l-3.46-16.725a19.324,19.324,0,0,1,13.841,5.19q5.479,5.19,5.479,13.841t-5.479,14.13A18.409,18.409,0,0,1,85.5-108.016a18.51,18.51,0,0,1-13.841-5.623,19.248,19.248,0,0,1-5.479-13.985,33.312,33.312,0,0,1,.433-5.479,45.36,45.36,0,0,1,1.586-6.2q1.153-3.6,3.172-8.795l13.553-40.37Z" transform="translate(-11.684 188.468)" fill="#df6618"/>
</svg>
